<?xml version="1.0" encoding="UTF-8" standalone="no"?>
<svg
   version="1.1"
   id="Layer_1"
   x="0px"
   y="0px"
   width="1920"
   viewBox="0 0 1920 1920"
   enable-background="new 0 0 2048 2048"
   xml:space="preserve"
   sodipodi:docname="wclw_logo.svg"
   height="1920"
   inkscape:export-filename="../Studio/woo-10000/wp-content/plugins/woo-link-wizard/assets/icon-256x256.png"
   inkscape:export-xdpi="12.8"
   inkscape:export-ydpi="12.8"
   inkscape:version="1.2.1 (9c6d41e, 2022-07-14)"
   xmlns:inkscape="http://www.inkscape.org/namespaces/inkscape"
   xmlns:sodipodi="http://sodipodi.sourceforge.net/DTD/sodipodi-0.dtd"
   xmlns="http://www.w3.org/2000/svg"
   xmlns:svg="http://www.w3.org/2000/svg"><defs
   id="defs219" /><sodipodi:namedview
   id="namedview217"
   pagecolor="#ffffff"
   bordercolor="#000000"
   borderopacity="0.25"
   inkscape:showpageshadow="2"
   inkscape:pageopacity="0.0"
   inkscape:pagecheckerboard="true"
   inkscape:deskcolor="#d1d1d1"
   showgrid="false"
   inkscape:zoom="0.28752044"
   inkscape:cx="1232.9558"
   inkscape:cy="912.97857"
   inkscape:window-width="1440"
   inkscape:window-height="2447"
   inkscape:window-x="0"
   inkscape:window-y="25"
   inkscape:window-maximized="1"
   inkscape:current-layer="Layer_1" />
















<g
   id="g462"
   transform="translate(34.418029,66.286421)"><path
     fill="#020202"
     opacity="1"
     stroke="none"
     d="m 1821.2225,1133.0463 c -32.682,120.9849 -87.9221,230.147 -164.8641,328.3882 -62.8567,80.2572 -136.2161,149.3127 -221.3474,205.5084 -85.5723,56.4867 -177.8822,98.152 -277.2137,124.0787 -51.1898,13.3613 -103.1084,22.4137 -155.8363,26.3792 -70.18147,5.2779 -140.26,3.7551 -209.93414,-6.5576 C 678.96153,1794.1081 572.51182,1757.7411 473.08512,1701.2336 399.69446,1659.5232 333.16071,1608.786 273.45048,1549.0542 180.4631,1456.0334 108.91699,1348.9192 60.877346,1226.3464 43.307842,1181.5177 29.753773,1135.4388 19.675282,1088.354 4.0282545,1015.2542 -3.1514107,941.34609 -0.8191373,866.59841 2.0611449,774.2889 17.687457,684.21371 47.961124,596.87628 80.436534,503.18682 126.2362,416.47124 186.47782,337.65253 235.86767,273.03205 292.38567,215.2616 356.38743,164.93277 459.65638,83.725527 575.15251,27.303052 702.3756,-5.0311451 767.10763,-21.483031 832.932,-30.503061 899.76155,-32.517548 c 99.31299,-2.993713 196.41505,9.993076 291.48415,38.7092397 101.7876,30.7454763 195.5278,77.6389813 280.885,140.9612283 116.7812,86.6339 209.384,194.12761 276.7773,323.16019 37.217,71.25646 64.6171,146.06985 81.8359,224.59488 22.0091,100.37033 27.0888,201.65375 15.9881,303.75978 -4.9256,45.30583 -13.6782,89.91213 -25.5095,134.37853 M 649.17071,807.72488 c 52.92763,-6.06646 106.04141,-7.58507 159.26498,-6.69817 2.2877,0.0382 5.12263,-0.96393 6.82297,-2.47277 14.27449,-12.66636 30.80765,-18.65457 49.8362,-17.16144 35.51457,2.78674 71.00189,5.92737 106.52448,8.60375 20.5051,1.54479 38.81756,7.15868 51.85936,24.41812 0.9407,1.24462 3.0891,1.94515 4.7812,2.19988 49.4215,7.43957 98.3537,17.29205 146.797,29.57889 13.6046,3.45071 27.207,6.91057 41.3542,10.50434 -0.2356,-1.65838 -0.3272,-2.73726 -0.5472,-3.7893 -4.309,-20.60915 -8.7652,-41.18849 -12.9233,-61.82799 -6.4031,-31.78204 -13.6164,-63.44857 -18.5589,-95.46169 -3.7188,-24.08747 -4.3645,-48.64605 -6.4825,-72.98585 -0.7928,-9.10971 -1.84,-18.17766 -6.6964,-26.30553 -7.3497,-12.30133 -13.9003,-25.141 -21.9967,-36.92304 -18.1863,-26.46526 -37.1142,-52.42093 -55.7402,-78.58403 32.9296,29.10206 63.6683,60.46815 93.3741,94.38582 27.0669,-26.89834 42.1006,-61.20968 64.2335,-90.63972 -7.7076,21.05182 -15.4152,42.10371 -23.1505,63.23145 0.4078,0.18945 0.8832,0.52708 1.4064,0.63663 24.0761,5.04075 48.1814,9.94884 72.2068,15.22025 3.1866,0.69917 6.5742,2.65096 8.8488,5.00719 25.1386,26.03988 50.0393,52.30946 75.126,78.3999 2.3969,2.49287 5.3716,4.72897 8.5009,6.15846 7.0499,3.22032 13.5289,-0.49509 14.0307,-8.20387 0.2315,-3.55576 -0.75,-7.42461 -2.0608,-10.81115 -17.2109,-44.46131 -35.8507,-88.30493 -57.7335,-130.69793 -2.7893,-5.40352 -6.203,-10.67671 -10.2219,-15.21874 -14.2163,-16.06677 -28.889,-31.7286 -43.2645,-47.65602 -29.5012,-32.68562 -58.9272,-65.43904 -88.3725,-98.17503 -9.6885,-10.77113 -21.8751,-17.25946 -35.779,-20.62777 -20.2618,-4.90864 -40.392,-2.86419 -60.4007,1.70037 -29.7931,6.79675 -59.5147,13.91456 -89.3561,20.4902 -50.22132,11.06637 -100.52268,21.76891 -150.77035,32.716 -23.7588,5.17607 -42.51582,17.68338 -54.95179,38.83574 -3.85845,6.56284 -7.34812,13.41944 -10.25625,20.45196 -28.03081,67.78318 -55.9451,135.6147 -83.8039,203.4689 -22.12988,53.90065 -43.99541,107.91441 -70.89601,159.69562 -1.20115,2.31216 -2.40333,4.62966 -3.42392,7.02192 -0.11324,0.26552 0.96926,1.0413 2.41933,1.51465 m 301.42174,214.48002 c -32.70719,-2.8403 -65.40855,-5.7513 -98.12411,-8.4926 -17.57191,-1.4726 -33.74284,-5.9102 -46.13699,-19.60161 -1.10751,-1.22333 -3.57024,-1.6148 -5.43536,-1.70035 -63.19037,-2.90039 -126.03185,1.94681 -188.79527,8.56996 -13.37291,1.4112 -26.86766,3.0196 -39.58801,-3.12604 -3.08698,-1.49129 -5.00057,-0.69593 -7.4991,0.91238 -27.62397,17.78106 -56.32715,33.75516 -86.6389,46.31146 -38.67615,16.0216 -78.04232,30.3696 -116.95399,45.8337 -22.63651,8.9961 -45.32115,18.0243 -67.26053,28.5468 -8.91834,4.2773 -16.40428,12.0659 -23.61477,19.1945 -4.7794,4.7252 -5.94262,11.5356 -4.66263,18.9605 19.59844,-10.4742 39.66527,-17.6705 60.44153,-23.0715 59.3898,-15.4389 120.06045,-21.0402 181.11129,-22.9655 55.25661,-1.7428 110.40782,0.9851 165.46459,6.0543 56.13085,5.168 111.85179,13.2247 167.28445,23.2472 78.32969,14.1623 155.73733,32.55 232.99685,51.6029 87.2677,21.521 174.9167,41.2241 264.3944,51.3123 45.271,5.1041 90.6225,8.7454 136.2348,4.0236 28.4693,-2.9472 56.743,-6.8296 82.9619,-19.0062 8.4575,-3.928 16.5906,-9.356 23.4925,-15.6183 7.7271,-7.0109 7.5444,-16.1228 0.4213,-23.8979 -4.4578,-4.8662 -9.7161,-9.6604 -15.5843,-12.4439 -15.108,-7.167 -30.4372,-14.1295 -46.2421,-19.5194 -66.7925,-22.7775 -131.0022,-51.3746 -193.3878,-84.2085 -19.7431,-10.3908 -39.4224,-20.9031 -59.1157,-31.3519 -19.786,14.5966 -31.5409,16.7784 -56.0345,10.8787 -39.4744,-9.5077 -78.8718,-19.3771 -118.5154,-28.1251 -27.0956,-5.9787 -54.5477,-10.3474 -81.8652,-15.2998 -2.0154,-0.3654 -4.7733,-0.3744 -6.2698,0.7124 -15.67414,11.3833 -33.22374,14.4505 -53.07915,12.2679 m -23.70513,382.9712 c 7.71086,47.6001 48.93447,90.472 103.49198,96.036 84.9905,8.6676 141.4518,-63.743 128.786,-137.0494 -9.1455,-52.9304 -48.6188,-90.0389 -102.6741,-96.5593 -89.27608,-10.7693 -141.88604,71.6538 -129.60388,137.5727 M 783.26427,1254.4869 c -20.69725,0.8233 -38.77512,8.2212 -54.60569,21.4908 -49.38827,41.3986 -38.49518,122.9586 19.98345,149.3463 55.75655,25.1596 115.50133,-6.1012 126.21571,-66.0409 9.8934,-55.347 -32.67681,-104.6322 -91.59347,-104.7962 m 303.64313,-247.6577 c 28.5195,6.4386 57.0524,12.8175 85.5528,19.3388 16.5105,3.7776 32.8637,8.3222 49.4761,11.5533 21.1718,4.1178 38.1267,-9.8242 39.1428,-31.2941 0.1763,-3.7245 0.2406,-7.45878 0.2174,-11.18757 -0.1571,-25.36797 -0.3123,-50.73605 -0.5461,-76.10323 -0.216,-23.42822 -10.233,-36.74891 -32.8857,-43.10959 -15.0456,-4.22472 -30.1813,-8.174 -45.3944,-11.74555 -24.825,-5.82808 -49.5667,-12.31479 -74.6784,-16.52789 -23.3967,-3.92544 -43.7556,14.47058 -43.9172,40.68794 12.4372,2.56046 24.8126,5.15905 37.2226,7.58099 1.1868,0.23169 3.0573,-0.22042 3.8135,-1.06714 4.482,-5.01826 10.0019,-5.25809 15.9293,-3.88381 25.5727,5.92943 51.1607,11.7951 76.695,17.8859 13.1203,3.12983 22.4164,14.03828 22.9642,27.59909 0.5113,12.65873 0.4248,25.36718 -0.021,38.03174 -0.4111,11.65879 -9.7857,18.94896 -21.046,16.42716 -30.7124,-6.87855 -61.3945,-13.90771 -91.9668,-21.37481 -3.4039,-0.83153 -6.0186,-4.87609 -9.0107,-7.41704 -1.645,-1.39712 -3.1288,-3.5896 -5.0025,-4.01018 -9.9896,-2.24231 -20.0769,-4.05039 -30.1361,-5.97961 -2.6186,-0.50221 -5.2573,-0.90074 -7.8995,-1.34909 -3.7153,28.72075 6.7797,47.50802 31.4915,55.94469 M 646.96633,823.8207 c -10.16632,1.3157 -20.36407,2.42923 -30.4902,4.00314 -10.39021,1.61498 -18.79364,6.76002 -25.09705,15.29563 -5.14533,6.96725 -7.12369,15.00436 -8.67525,23.33105 -5.05127,27.10905 -10.5871,54.13036 -15.40075,81.28042 -3.13763,17.6963 8.15794,33.39943 25.73718,36.53519 4.53397,0.80869 9.30996,0.73579 13.93893,0.46246 42.06898,-2.48597 84.13748,-4.99154 126.19067,-7.72833 26.58404,-1.73014 44.06335,-23.27291 41.12255,-49.80083 -12.85321,0 -25.66555,-0.0325 -38.47673,0.0717 -0.87002,0.0112 -2.11137,0.84161 -2.53667,1.63585 -3.20884,5.99238 -8.70934,7.9786 -14.88776,8.36346 -30.33743,1.89026 -60.67666,3.7709 -91.03037,5.36924 -10.78688,0.56771 -17.01115,-6.3965 -15.30431,-16.96487 2.1074,-13.04852 4.47588,-26.07097 7.27493,-38.98699 2.63946,-12.17954 12.587,-21.74736 23.97688,-22.82071 25.98801,-2.44885 52.01708,-4.46672 78.03516,-6.5895 5.35998,-0.43734 9.86334,1.32308 13.19116,5.79821 0.67183,0.90344 1.97311,1.94269 2.95871,1.91761 12.82526,-0.32662 25.646,-0.83387 39.39445,-1.3291 -0.54463,-6.22263 -0.39954,-12.24897 -1.69583,-17.94733 -4.04135,-17.76444 -19.05663,-29.96934 -38.02449,-28.98497 -29.77469,1.54506 -59.47345,4.55064 -90.20121,7.08848 M 1316.0817,622.94389 c -4.7517,10.68895 -7.1878,21.88035 -7.6368,33.57212 -2.5634,66.75577 65.3916,116.04603 131.3245,84.77118 34.4424,-16.33734 54.8519,-57.13655 49.228,-94.99975 -5.826,-39.2236 -35.0905,-69.9992 -73.4269,-76.77754 -6.7709,-1.19712 -13.7757,-1.07109 -21.0187,-1.58047 4.4248,11.27521 8.2235,21.35458 12.4151,31.26782 0.7568,1.78974 2.9207,3.71576 4.7892,4.19341 23.9602,6.12477 38.8421,21.43681 43.1931,45.41329 4.344,23.93554 -4.12,44.21172 -24.0519,58.10875 -20.0676,13.99169 -41.6594,14.09052 -62.6331,1.3712 -23.5344,-14.27239 -32.6565,-47.48508 -20.774,-73.12363 0.7958,-1.71688 1.5215,-4.73888 0.6498,-5.7542 -6.8666,-7.9974 -14.1302,-15.65377 -21.893,-24.09062 -3.47,6.01015 -6.6115,11.45126 -10.1653,17.62844 m -310.2125,194.91334 c -8.53879,-7.57381 -18.58413,-11.48078 -29.89445,-12.44273 -32.89172,-2.79769 -65.77449,-5.70281 -98.67254,-8.42217 -6.49744,-0.53711 -13.05551,-0.73135 -19.57216,-0.56329 -13.13766,0.33878 -23.89652,6.02102 -33.27004,15.0591 -14.72264,14.1957 -20.89524,32.39522 -26.04377,52.46596 14.91729,0 28.81952,0 42.83349,0 0.94179,-2.70303 1.79766,-5.75078 3.04303,-8.63008 5.11614,-11.82804 15.09088,-18.80027 26.40976,-17.89402 31.04783,2.48589 62.07371,5.24216 93.11223,7.84752 10.58506,0.88855 17.71455,6.58219 21.59731,16.11461 1.99932,4.90857 2.86176,10.28025 4.31229,15.72224 13.49735,1.80663 27.29265,3.65316 41.78025,5.59243 -1.773,-24.3793 -7.0912,-46.75667 -25.6354,-64.84957 m -35.76421,144.50579 c -5.68042,1.22939 -11.46698,3.87022 -17.02355,3.45266 -29.74465,-2.23604 -59.39288,-5.86763 -89.15542,-7.7065 -15.14192,-0.93567 -22.32274,-10.15966 -25.53869,-21.54848 -0.8416,-2.98034 -1.26513,-6.07871 -1.96887,-9.55947 -14.17212,0 -28.03089,0 -42.05204,0 1.04752,15.97691 4.99175,30.84794 13.19165,44.28816 9.77846,16.02774 23.49213,25.83994 42.9749,27.26718 35.15101,2.57493 70.30968,5.27083 105.3613,8.91603 38.81759,4.0368 63.79863,-28.60526 69.71853,-61.7973 -13.6008,-1.98914 -27.19029,-3.9766 -40.96218,-5.9907 -2.82044,8.92401 -6.3339,16.87193 -14.54563,22.67842 m 16.20679,-74.4375 c -4.62527,-0.57607 -9.2502,-1.1542 -13.87591,-1.72747 -4.81081,-0.59631 -9.63125,-1.12612 -14.43231,-1.79336 -13.20395,-1.83519 -23.09476,5.21892 -24.4949,17.53023 -1.47584,12.97742 6.18385,22.00422 19.69215,23.35431 53.09459,5.30631 105.81819,12.908 157.74459,25.47166 10.9259,2.64341 21.2333,-3.75857 23.9831,-14.63297 2.8281,-11.18368 -3.5942,-22.78391 -14.962,-24.84001 -44.1757,-7.98968 -88.4351,-15.51624 -133.65472,-23.36239 M 848.83576,876.42443 c -43.28264,-2.11573 -86.55585,-1.65044 -129.81909,0.54444 -11.47066,0.58188 -19.62881,9.53733 -18.97585,20.59739 0.73635,12.47256 9.00507,20.05141 21.16951,19.49814 10.99595,-0.49997 21.99224,-1.06366 32.99488,-1.33744 39.94293,-0.99367 79.84716,-0.46503 119.70485,2.75673 12.24639,0.98975 21.45273,-7.36296 21.87004,-18.79274 0.43297,-11.85633 -8.0462,-20.8746 -20.1969,-21.5676 -8.56848,-0.48867 -17.1315,-1.07234 -26.74744,-1.69892 M 371.38282,1140.656 c -14.35665,3.233 -28.95699,5.6606 -43.00547,9.9119 -15.9781,4.8353 -31.51164,11.1735 -47.12452,17.1555 -3.43589,1.3164 -6.39261,3.8833 -10.91028,6.7144 14.69687,3.804 27.81235,4.8227 40.74115,3.1234 29.54105,-3.8828 59.15347,-7.7017 88.38079,-13.3797 43.52185,-8.4546 86.70505,-18.6397 130.09875,-27.7727 15.08869,-3.1758 30.37497,-5.4132 45.57103,-8.0791 -68.06731,-3.2394 -135.68161,0.4279 -203.75145,12.3263 z"
     id="path184"
     style="stroke-width:1.11976" /><path
     fill="#fefefe"
     opacity="1"
     stroke="none"
     d="m 648.70965,807.75782 c -0.98901,-0.50629 -2.07151,-1.28207 -1.95827,-1.54759 1.02059,-2.39226 2.22277,-4.70976 3.42392,-7.02192 26.9006,-51.78121 48.76613,-105.79497 70.89601,-159.69562 27.8588,-67.8542 55.77309,-135.68572 83.8039,-203.4689 2.90813,-7.03252 6.3978,-13.88912 10.25625,-20.45196 12.43597,-21.15236 31.19299,-33.65967 54.95179,-38.83574 50.24767,-10.94709 100.54903,-21.64963 150.77035,-32.716 29.8414,-6.57564 59.563,-13.69345 89.3561,-20.4902 20.0087,-4.56456 40.1389,-6.60901 60.4007,-1.70037 13.9039,3.36831 26.0905,9.85664 35.779,20.62777 29.4453,32.73599 58.8713,65.48941 88.3725,98.17503 14.3755,15.92742 29.0482,31.58925 43.2645,47.65602 4.0189,4.54203 7.4326,9.81522 10.2219,15.21874 21.8828,42.393 40.5226,86.23662 57.7335,130.69793 1.3108,3.38654 2.2923,7.25539 2.0608,10.81115 -0.5018,7.70878 -6.9808,11.42419 -14.0307,8.20387 -3.1293,-1.42949 -6.104,-3.66559 -8.5009,-6.15846 -25.0867,-26.09044 -49.9874,-52.36002 -75.126,-78.3999 -2.2746,-2.35623 -5.6622,-4.30802 -8.8488,-5.00719 -24.0254,-5.27141 -48.1307,-10.1795 -72.2068,-15.22025 -0.5232,-0.10952 -0.9986,-0.44718 -1.4064,-0.63663 7.7353,-21.12774 15.4429,-42.17963 23.1505,-63.23145 -22.1329,29.43004 -37.1666,63.74138 -64.2335,90.63972 -29.7058,-33.91767 -60.4445,-65.28376 -93.3741,-94.38582 18.626,26.1631 37.5539,52.11877 55.7402,78.58403 8.0964,11.78204 14.647,24.62171 21.9967,36.92304 4.8564,8.12787 5.9036,17.19582 6.6964,26.30553 2.118,24.3398 2.7637,48.89838 6.4825,72.98585 4.9425,32.01312 12.1558,63.67965 18.5589,95.46169 4.1581,20.6395 8.6143,41.21884 12.9233,61.82799 0.22,1.05204 0.3116,2.13092 0.5472,3.7893 -14.1472,-3.59377 -27.7496,-7.05363 -41.3542,-10.50434 -48.4433,-12.28684 -97.3755,-22.13932 -146.797,-29.57889 -1.6921,-0.25473 -3.8405,-0.95526 -4.7812,-2.19988 -13.0418,-17.25944 -31.35426,-22.87333 -51.85936,-24.41812 -35.52259,-2.67638 -71.00991,-5.81701 -106.52448,-8.60375 -19.02855,-1.49313 -35.56171,4.49508 -49.8362,17.16144 -1.70034,1.50884 -4.53527,2.51091 -6.82297,2.47277 -53.22357,-0.8869 -106.33735,0.63171 -159.72604,6.73111 M 1251.6057,482.42424 c -0.1878,-0.0785 -0.3756,-0.15699 -0.5634,-0.23545 0.055,0.21413 0.1098,0.42818 0.5634,0.23545 z"
     id="path186"
     style="stroke-width:1.11976" /><path
     fill="#fefefe"
     opacity="1"
     stroke="none"
     d="m 951.11067,1022.2632 c 19.33719,2.1243 36.88679,-0.9429 52.56093,-12.3262 1.4965,-1.0868 4.2544,-1.0778 6.2698,-0.7124 27.3175,4.9524 54.7696,9.3211 81.8652,15.2998 39.6436,8.748 79.041,18.6174 118.5154,28.1251 24.4936,5.8997 36.2485,3.7179 56.0345,-10.8787 19.6933,10.4488 39.3726,20.9611 59.1157,31.3519 62.3856,32.8339 126.5953,61.431 193.3878,84.2085 15.8049,5.3899 31.1341,12.3524 46.2421,19.5194 5.8682,2.7835 11.1265,7.5777 15.5843,12.4439 7.1231,7.7751 7.3058,16.887 -0.4213,23.8979 -6.9019,6.2623 -15.035,11.6903 -23.4925,15.6183 -26.2189,12.1766 -54.4926,16.059 -82.9619,19.0062 -45.6123,4.7218 -90.9638,1.0805 -136.2348,-4.0236 -89.4777,-10.0882 -177.1267,-29.7913 -264.3944,-51.3123 -77.25952,-19.0529 -154.66716,-37.4406 -232.99685,-51.6029 -55.43266,-10.0225 -111.1536,-18.0792 -167.28445,-23.2472 -55.05677,-5.0692 -110.20798,-7.7971 -165.46459,-6.0543 -61.05084,1.9253 -121.72149,7.5266 -181.11129,22.9655 -20.77626,5.401 -40.84309,12.5973 -60.44153,23.0715 -1.27999,-7.4249 -0.11677,-14.2353 4.66263,-18.9605 7.21049,-7.1286 14.69643,-14.9172 23.61477,-19.1945 21.93938,-10.5225 44.62402,-19.5507 67.26053,-28.5468 38.91167,-15.4641 78.27784,-29.8121 116.95399,-45.8337 30.31175,-12.5563 59.01493,-28.5304 86.6389,-46.31146 2.49853,-1.60831 4.41212,-2.40367 7.4991,-0.91238 12.72035,6.14564 26.2151,4.53724 39.58801,3.12604 62.76342,-6.62315 125.6049,-11.47035 188.79527,-8.56996 1.86512,0.0851 4.32785,0.47702 5.43536,1.70035 12.39415,13.69141 28.56508,18.12901 46.13699,19.60161 32.71556,2.7413 65.41692,5.6523 98.64233,8.5509 z"
     id="path188"
     style="stroke-width:1.11976" /><path
     fill="#fdfdfc"
     opacity="1"
     stroke="none"
     d="m 926.78587,1404.6992 c -12.18071,-65.442 40.42925,-147.8651 129.70533,-137.0958 54.0553,6.5204 93.5286,43.6289 102.6741,96.5593 12.6658,73.3064 -43.7955,145.717 -128.786,137.0494 -54.55751,-5.564 -95.78112,-48.4359 -103.59343,-96.5129 m 106.04403,-97.645 c -20.1915,-9.6146 -46.04928,-4.9953 -54.0889,3.8061 16.04711,1.3099 23.8171,8.9075 22.3335,21.8377 -1.18075,10.2928 -10.77168,17.4763 -21.20244,15.8809 -11.55297,-1.7673 -17.46238,-11.9493 -14.9184,-26.9212 -1.71401,1.9623 -3.02805,3.2214 -4.05721,4.6815 -13.74199,19.4954 -15.57346,40.2697 -4.26852,61.0937 11.57224,21.3161 30.94526,31.0557 54.75887,29.9636 27.2774,-1.2507 49.3566,-20.783 54.2458,-46.0319 5.1477,-26.5819 -7.2771,-51.4265 -32.8027,-64.3104 z"
     id="path190"
     style="stroke-width:1.11976" /><path
     fill="#fdfdfc"
     opacity="1"
     stroke="none"
     d="m 783.80015,1254.4848 c 58.38078,0.1661 100.95099,49.4513 91.05759,104.7983 -10.71438,59.9397 -70.45916,91.2005 -126.21571,66.0409 -58.47863,-26.3877 -69.37172,-107.9477 -19.98345,-149.3463 15.83057,-13.2696 33.90844,-20.6675 55.14157,-21.4929 m 22.11895,115.2265 c 28.33106,5.5736 52.14925,-10.6265 55.48542,-38.388 2.13864,-17.7966 -5.50624,-31.7412 -20.04927,-41.5209 -13.75078,-9.2466 -28.49125,-9.2262 -43.8432,-2.4782 12.3109,6.5576 15.71868,11.3353 13.85158,18.9764 -1.51137,6.1854 -6.686,10.9872 -12.80345,10.3672 -3.80878,-0.3859 -8.17926,-2.0402 -10.88537,-4.6115 -2.79283,-2.6537 -3.87438,-7.1083 -5.61833,-10.6022 -19.38482,22.2086 -7.39692,58.5514 23.86262,68.2572 z"
     id="path192"
     style="stroke-width:1.11976" /><path
     fill="#fdfdfc"
     opacity="1"
     stroke="none"
     d="m 1086.4787,1006.7006 c -24.283,-8.30807 -34.7781,-27.09534 -31.0627,-55.81609 2.6422,0.44835 5.2809,0.84688 7.8994,1.34909 10.0592,1.92922 20.1466,3.7373 30.1361,5.97961 1.8737,0.42058 3.3575,2.61306 5.0025,4.01018 2.9921,2.54095 5.6069,6.58551 9.0107,7.41704 30.5724,7.4671 61.2545,14.49626 91.9668,21.37481 11.2603,2.5218 20.6349,-4.76837 21.0461,-16.42716 0.4465,-12.66456 0.533,-25.37301 0.021,-38.03174 -0.5478,-13.56081 -9.8439,-24.46926 -22.9642,-27.59909 -25.5344,-6.0908 -51.1224,-11.95647 -76.6951,-17.8859 -5.9274,-1.37428 -11.4472,-1.13445 -15.9293,3.88381 -0.7561,0.84672 -2.6267,1.29883 -3.8134,1.06714 -12.41,-2.42194 -24.7855,-5.02053 -37.2226,-7.58099 0.1616,-26.21736 20.5204,-44.61338 43.9172,-40.68794 25.1116,4.2131 49.8533,10.69981 74.6783,16.52789 15.2131,3.57155 30.3489,7.52083 45.3945,11.74555 22.6527,6.36068 32.6697,19.68137 32.8857,43.10959 0.2338,25.36718 0.389,50.73526 0.5461,76.10323 0.024,3.72879 -0.042,7.46307 -0.2175,11.18757 -1.0161,21.4699 -17.971,35.4119 -39.1428,31.2941 -16.6123,-3.2311 -32.9656,-7.7757 -49.4761,-11.5533 -28.5003,-6.5213 -57.0333,-12.9002 -85.9815,-19.4674 z"
     id="path194"
     style="stroke-width:1.11976" /><path
     fill="#fdfdfc"
     opacity="1"
     stroke="none"
     d="m 647.46476,823.74531 c 30.22933,-2.46245 59.92809,-5.46804 89.70278,-7.0131 18.96786,-0.98436 33.98314,11.22053 38.02449,28.98497 1.29629,5.69837 1.1512,11.7247 1.69583,17.94734 -13.74845,0.49522 -26.56919,1.00247 -39.39445,1.32909 -0.9856,0.0251 -2.28688,-1.01416 -2.95871,-1.9176 -3.32782,-4.47513 -7.83118,-6.23556 -13.19116,-5.79821 -26.01808,2.12277 -52.04715,4.14064 -78.03516,6.58949 -11.38988,1.07336 -21.33742,10.64117 -23.97688,22.82072 -2.79905,12.91602 -5.16753,25.93846 -7.27493,38.98698 -1.70684,10.56837 4.51743,17.53259 15.30431,16.96487 30.35371,-1.59834 60.69294,-3.47897 91.03037,-5.36923 6.17842,-0.38486 11.67892,-2.37109 14.88776,-8.36346 0.4253,-0.79425 1.66665,-1.62869 2.53667,-1.63585 12.81118,-0.10414 25.62352,-0.0717 38.47673,-0.0717 2.9408,26.52793 -14.53851,48.07069 -41.12255,49.80083 -42.05319,2.7368 -84.12169,5.24236 -126.19067,7.72833 -4.62897,0.27334 -9.40496,0.34623 -13.93893,-0.46245 -17.57924,-3.13577 -28.87481,-18.8389 -25.73718,-36.53519 4.81365,-27.15006 10.34948,-54.17137 15.40075,-81.28043 1.55156,-8.32669 3.52992,-16.3638 8.67525,-23.33104 6.30341,-8.53561 14.70684,-13.68066 25.09705,-15.29564 10.12613,-1.57391 20.32388,-2.68744 30.98863,-4.07852 z"
     id="path196"
     style="stroke-width:1.11976" /><path
     fill="#fcfcfb"
     opacity="1"
     stroke="none"
     d="m 1316.2878,622.57578 c 3.3477,-5.80907 6.4892,-11.25018 9.9592,-17.26033 7.7628,8.43685 15.0264,16.09322 21.893,24.09062 0.8717,1.01532 0.146,4.03732 -0.6498,5.7542 -11.8825,25.63855 -2.7604,58.85124 20.774,73.12363 20.9737,12.71932 42.5655,12.62049 62.6331,-1.3712 19.9319,-13.89703 28.3959,-34.17321 24.0519,-58.10875 -4.351,-23.97648 -19.2329,-39.28852 -43.1931,-45.41329 -1.8685,-0.47765 -4.0324,-2.40367 -4.7892,-4.19341 -4.1916,-9.91324 -7.9903,-19.99261 -12.4151,-31.26782 7.243,0.50938 14.2478,0.38335 21.0187,1.58047 38.3364,6.77834 67.6009,37.55394 73.4269,76.77754 5.6239,37.8632 -14.7856,78.66241 -49.228,94.99975 -65.9329,31.27485 -133.8879,-18.01541 -131.3245,-84.77118 0.449,-11.69177 2.8851,-22.88317 7.8429,-33.94023 z"
     id="path198"
     style="stroke-width:1.11976" /><path
     fill="#fcfcfc"
     opacity="1"
     stroke="none"
     d="m 1006.156,818.13156 c 18.2574,17.81857 23.5756,40.19594 25.3486,64.57524 -14.4876,-1.93927 -28.2829,-3.7858 -41.78025,-5.59243 -1.45053,-5.44199 -2.31297,-10.81367 -4.31229,-15.72224 -3.88276,-9.53242 -11.01225,-15.22606 -21.59731,-16.11461 -31.03852,-2.60536 -62.0644,-5.36163 -93.11223,-7.84752 -11.31888,-0.90625 -21.29362,6.06598 -26.40976,17.89402 -1.24537,2.8793 -2.10124,5.92705 -3.04303,8.63008 -14.01397,0 -27.9162,0 -42.83349,0 5.14853,-20.07074 11.32113,-38.27026 26.04377,-52.46596 9.37352,-9.03808 20.13238,-14.72032 33.27004,-15.0591 6.51665,-0.16806 13.07472,0.0262 19.57216,0.56329 32.89805,2.71936 65.78082,5.62448 98.67254,8.42217 11.31032,0.96195 21.35566,4.86892 30.18125,12.71706 z"
     id="path200"
     style="stroke-width:1.11976" /><path
     fill="#fcfcfc"
     opacity="1"
     stroke="none"
     d="m 970.46017,962.15061 c 7.85655,-5.59408 11.37001,-13.542 14.19045,-22.46601 13.77189,2.0141 27.36138,4.00156 40.96218,5.9907 -5.9199,33.19204 -30.90094,65.8341 -69.71853,61.7973 -35.05162,-3.6452 -70.21029,-6.3411 -105.3613,-8.91603 -19.48277,-1.42724 -33.19644,-11.23944 -42.9749,-27.26718 -8.1999,-13.44022 -12.14413,-28.31125 -13.19165,-44.28816 14.02115,0 27.87992,0 42.05204,0 0.70374,3.48076 1.12727,6.57913 1.96887,9.55947 3.21595,11.38882 10.39677,20.61281 25.53869,21.54848 29.76254,1.83887 59.41077,5.47046 89.15542,7.7065 5.55657,0.41756 11.34313,-2.22327 17.37873,-3.66507 z"
     id="path202"
     style="stroke-width:1.11976" /><path
     fill="#fcfcfc"
     opacity="1"
     stroke="none"
     d="m 986.80738,887.99913 c 44.72402,7.77254 88.98342,15.2991 133.15912,23.28878 11.3678,2.0561 17.7901,13.65633 14.962,24.84001 -2.7498,10.8744 -13.0572,17.27638 -23.9831,14.63297 -51.9264,-12.56366 -104.65,-20.16535 -157.74459,-25.47166 -13.5083,-1.35009 -21.16799,-10.37689 -19.69215,-23.35431 1.40014,-12.31131 11.29095,-19.36542 24.4949,-17.53023 4.80106,0.66724 9.6215,1.19705 14.43231,1.79336 4.62571,0.57327 9.25064,1.1514 14.37151,1.80108 z"
     id="path204"
     style="stroke-width:1.11976" /><path
     fill="#fdfdfc"
     opacity="1"
     stroke="none"
     d="m 849.36099,876.46708 c 9.09071,0.58393 17.65373,1.1676 26.22221,1.65627 12.1507,0.693 20.62987,9.71127 20.1969,21.5676 -0.41731,11.42978 -9.62365,19.78249 -21.87004,18.79274 -39.85769,-3.22176 -79.76192,-3.7504 -119.70485,-2.75673 -11.00264,0.27378 -21.99893,0.83747 -32.99488,1.33744 -12.16444,0.55327 -20.43316,-7.02558 -21.16951,-19.49814 -0.65296,-11.06006 7.50519,-20.01551 18.97585,-20.59739 43.26324,-2.19488 86.53645,-2.66017 130.34432,-0.50179 z"
     id="path206"
     style="stroke-width:1.11976" /><path
     fill="#fafaf8"
     opacity="1"
     stroke="none"
     d="m 371.8555,1140.5543 c 67.59716,-11.7967 135.21146,-15.464 203.27877,-12.2246 -15.19606,2.6659 -30.48234,4.9033 -45.57103,8.0791 -43.3937,9.133 -86.5769,19.3181 -130.09875,27.7727 -29.22732,5.678 -58.83974,9.4969 -88.38079,13.3797 -12.9288,1.6993 -26.04428,0.6806 -40.74115,-3.1234 4.51767,-2.8311 7.47439,-5.398 10.91028,-6.7144 15.61288,-5.982 31.14642,-12.3202 47.12452,-17.1555 14.04848,-4.2513 28.64882,-6.6789 43.47815,-10.0136 z"
     id="path208"
     style="stroke-width:1.11976" /><path
     fill="#020202"
     opacity="1"
     stroke="none"
     d="m 1251.406,482.6277 c -0.2544,-0.0112 -0.309,-0.22478 -0.3637,-0.43891 0.1878,0.0785 0.3756,0.15699 0.3637,0.43891 z"
     id="path210"
     style="stroke-width:1.11976" /><path
     fill="#040404"
     opacity="1"
     stroke="none"
     d="m 1033.2265,1307.2059 c 25.129,12.7322 37.5538,37.5768 32.4061,64.1587 -4.8892,25.2489 -26.9684,44.7812 -54.2458,46.0319 -23.81361,1.0921 -43.18663,-8.6475 -54.75887,-29.9636 -11.30494,-20.824 -9.47347,-41.5983 4.26852,-61.0937 1.02916,-1.4601 2.3432,-2.7192 4.05721,-4.6815 -2.54398,14.9719 3.36543,25.1539 14.9184,26.9212 10.43076,1.5954 20.02169,-5.5881 21.20244,-15.8809 1.4836,-12.9302 -6.28639,-20.5278 -22.3335,-21.8377 8.03962,-8.8014 33.8974,-13.4207 54.4855,-3.6544 z"
     id="path212"
     style="stroke-width:1.11976" /><path
     fill="#040404"
     opacity="1"
     stroke="none"
     d="m 805.46783,1369.6005 c -30.80827,-9.595 -42.79617,-45.9378 -23.41135,-68.1464 1.74395,3.4939 2.8255,7.9485 5.61833,10.6022 2.70611,2.5713 7.07659,4.2256 10.88537,4.6115 6.11745,0.62 11.29208,-4.1818 12.80345,-10.3672 1.8671,-7.6411 -1.54068,-12.4188 -13.85158,-18.9764 15.35195,-6.748 30.09242,-6.7684 43.8432,2.4782 14.54303,9.7797 22.18791,23.7243 20.04927,41.5209 -3.33617,27.7615 -27.15436,43.9616 -55.93669,38.2772 z"
     id="path214"
     style="stroke-width:1.11976" /></g>
</svg>
